<svg width="263" height="140" viewBox="0 0 263 140" fill="none" xmlns="http://www.w3.org/2000/svg">
<g filter="url(#filter0_d_8_38)">
<path d="M85 105H2C1.44772 105 1 105.448 1 106V131C1 131.552 1.44772 132 2 132H85C85.5523 132 86 131.552 86 131V106C86 105.448 85.5523 105 85 105Z" fill="#BA0000"/>
<path d="M34 97H13V105H34V97Z" fill="#BA0000"/>
<path d="M74 97H53V105H74V97Z" fill="#BA0000"/>
<path d="M170 105H87C86.4477 105 86 105.448 86 106V131C86 131.552 86.4477 132 87 132H170C170.552 132 171 131.552 171 131V106C171 105.448 170.552 105 170 105Z" fill="#E4E721"/>
<path d="M119 97H98V105H119V97Z" fill="#E4E721"/>
<path d="M159 97H138V105H159V97Z" fill="#E4E721"/>
<path d="M128 78H45C44.4477 78 44 78.4477 44 79V104C44 104.552 44.4477 105 45 105H128C128.552 105 129 104.552 129 104V79C129 78.4477 128.552 78 128 78Z" fill="#00C4CB"/>
<path d="M77 70H56V78H77V70Z" fill="#00C4CB"/>
<path d="M117 70H96V78H117V70Z" fill="#00C4CB"/>
<path d="M255 105H172C171.448 105 171 105.448 171 106V131C171 131.552 171.448 132 172 132H255C255.552 132 256 131.552 256 131V106C256 105.448 255.552 105 255 105Z" fill="#2CB6D5"/>
<path d="M204 97H183V105H204V97Z" fill="#2CB6D5"/>
<path d="M244 97H223V105H244V97Z" fill="#2CB6D5"/>
<path d="M226.215 71.9118L147.737 44.8897C147.214 44.7099 146.645 44.9874 146.465 45.5096L138.326 69.1476C138.146 69.6698 138.424 70.2389 138.946 70.4187L217.424 97.4408C217.946 97.6206 218.516 97.3431 218.695 96.8209L226.835 73.1829C227.014 72.6607 226.737 72.0916 226.215 71.9118Z" fill="#1C7025"/>
<path d="M180.597 47.7437L160.741 40.9068L158.136 48.4709L177.992 55.3079L180.597 47.7437Z" fill="#1C7025"/>
<path d="M218.418 60.7664L198.562 53.9295L195.957 61.4936L215.813 68.3306L218.418 60.7664Z" fill="#1C7025"/>
<path d="M159.668 4.94278L80.2952 29.2096C79.767 29.3711 79.4698 29.9302 79.6312 30.4583L86.9405 54.3659C87.102 54.8941 87.6611 55.1913 88.1892 55.0299L167.563 30.763C168.091 30.6015 168.388 30.0425 168.226 29.5143L160.917 5.60671C160.756 5.07856 160.197 4.7813 159.668 4.94278Z" fill="#A8A962"/>
<path d="M108.558 12.2033L88.4756 18.3431L90.8146 25.9935L110.897 19.8537L108.558 12.2033Z" fill="#A8A962"/>
<path d="M146.81 0.508464L126.728 6.64827L129.067 14.2987L149.149 8.1589L146.81 0.508464Z" fill="#A8A962"/>
</g>
<defs>
<filter id="filter0_d_8_38" x="0" y="0.508465" width="263" height="139.492" filterUnits="userSpaceOnUse" color-interpolation-filters="sRGB">
<feFlood flood-opacity="0" result="BackgroundImageFix"/>
<feColorMatrix in="SourceAlpha" type="matrix" values="0 0 0 0 0 0 0 0 0 0 0 0 0 0 0 0 0 0 127 0" result="hardAlpha"/>
<feOffset dx="3" dy="4"/>
<feGaussianBlur stdDeviation="2"/>
<feComposite in2="hardAlpha" operator="out"/>
<feColorMatrix type="matrix" values="0 0 0 0 0 0 0 0 0 0 0 0 0 0 0 0 0 0 0.25 0"/>
<feBlend mode="normal" in2="BackgroundImageFix" result="effect1_dropShadow_8_38"/>
<feBlend mode="normal" in="SourceGraphic" in2="effect1_dropShadow_8_38" result="shape"/>
</filter>
</defs>
</svg>
