<svg width="121" height="119" viewBox="0 0 121 119" fill="none" xmlns="http://www.w3.org/2000/svg">
<rect x="0.141113" y="21.2989" width="59" height="59" rx="9" transform="rotate(-11.5359 0.141113 21.2989)" fill="#5B87E8"/>
<path d="M27.6224 62.6382L23.2801 63.5245L28.8581 26.7572L33.1336 25.8845L52.674 57.5251L48.3318 58.4113L32.2339 31.7048L31.9667 31.7593L27.6224 62.6382ZM26.4986 48.9501L44.0014 45.3777L44.7514 49.0519L27.2486 52.6243L26.4986 48.9501Z" fill="black"/>
<path d="M92.5823 40.7593C92.0803 38.1568 91.0707 35.6787 89.611 33.4664C88.1513 31.2541 86.2701 29.3501 84.0748 27.8648C81.8797 26.3796 79.4133 25.3414 76.8168 24.8092C74.5786 24.3505 72.2812 24.2775 70.0229 24.5872L70.0619 24.7994C70.2009 25.5566 69.468 26.1803 68.7428 25.9221L63.7195 24.1342C62.9945 23.876 62.8209 22.9301 63.4069 22.4311L67.4663 18.9747C68.0525 18.4757 68.96 18.7987 69.0991 19.5558L69.153 19.8458C72.0195 19.4273 74.94 19.5087 77.7835 20.0915C80.9996 20.7506 84.0544 22.0365 86.7735 23.8762C89.4925 25.7158 91.8224 28.0732 93.6305 30.8133C95.4386 33.5536 96.6897 36.6234 97.3115 39.847L92.5823 40.7593Z" fill="url(#paint0_linear_10_105)"/>
<rect x="51.2515" y="51.6917" width="59" height="59" rx="9" transform="rotate(-11.5359 51.2515 51.6917)" fill="#FFA96C"/>
<path d="M94.5503 59.8128L98.496 60.1832C97.6919 66.3241 96.1633 71.7963 93.9104 76.5999C91.6889 81.397 88.7059 85.6638 84.9615 89.4001C81.2484 93.13 76.7274 96.5022 71.3987 99.5167C71.2092 99.2288 70.9319 98.9098 70.5665 98.5598C70.2325 98.2034 69.8639 97.8377 69.4608 97.4628C69.089 97.0814 68.7521 96.7909 68.4501 96.5913C73.6982 93.8218 78.1386 90.6947 81.771 87.2098C85.3971 83.6937 88.2713 79.6941 90.3937 75.2111C92.5096 70.6968 93.8952 65.564 94.5503 59.8128ZM73.209 64.4626C75.9574 69.1272 79.1991 73.1686 82.9341 76.5867C86.694 79.967 90.9876 82.6016 95.8149 84.4904C100.642 86.3792 106.031 87.4186 111.981 87.6085C111.75 87.9169 111.504 88.3101 111.242 88.7881C111.018 89.291 110.794 89.794 110.57 90.2969C110.378 90.7935 110.219 91.2177 110.095 91.5696C103.987 91.2486 98.4695 90.056 93.5412 87.9918C88.6378 85.89 84.246 83.0142 80.3657 79.3644C76.479 75.6833 73.0038 71.2977 69.94 66.2076L73.209 64.4626ZM62.4496 64.5521L104.965 55.8745L105.666 59.3077L63.1503 67.9853L62.4496 64.5521ZM80.1002 52.6213L83.7215 51.8822L85.7757 61.9467L82.1544 62.6858L80.1002 52.6213Z" fill="black"/>
<defs>
<linearGradient id="paint0_linear_10_105" x1="94.4773" y1="40.3937" x2="64.8539" y2="38.7986" gradientUnits="userSpaceOnUse">
<stop offset="0.105769" stop-color="#EA903C"/>
<stop offset="0.610577" stop-color="#5B87E8"/>
</linearGradient>
</defs>
</svg>
