<svg width="100" height="100" viewBox="0 0 100 100" fill="none" xmlns="http://www.w3.org/2000/svg">
<rect width="100" height="100" rx="10" fill="white"/>
<rect x="2" y="2" width="96" height="96" rx="10" fill="#FE8300"/>
<rect x="3" y="3" width="94" height="94" rx="10" fill="white"/>
<rect x="15.967" y="23.9618" width="40" height="40" rx="5" transform="rotate(-15 15.967 23.9618)" fill="#0095FF"/>
<path d="M44.4921 22.709L47.8948 21.7973L52.88 40.4023C53.3947 42.3232 53.4015 44.1596 52.9003 45.9115C52.4059 47.6518 51.4564 49.1758 50.0519 50.4835C48.645 51.782 46.8393 52.7266 44.6349 53.3173C42.4304 53.908 40.3944 53.9928 38.5267 53.5717C36.6565 53.1414 35.0677 52.2976 33.7602 51.0401C32.4594 49.771 31.5516 48.176 31.0369 46.2552L26.0517 27.6501L29.4544 26.7384L34.3661 45.069C34.7337 46.4411 35.3628 47.5813 36.2532 48.4898C37.1412 49.389 38.2253 49.9956 39.5055 50.3094C40.7923 50.6117 42.2178 50.5532 43.782 50.1341C45.3461 49.715 46.6098 49.0529 47.5731 48.1477C48.534 47.2334 49.1696 46.1661 49.4798 44.9457C49.7968 43.7137 49.7714 42.4117 49.4038 41.0397L44.4921 22.709Z" fill="black"/>
<rect x="54.6808" y="40" width="40" height="40" rx="5" transform="rotate(20 54.6808 40)" fill="#FE8300"/>
<path d="M66.0468 63.923C66.0884 67.7266 67.0853 71.1862 69.0374 74.3018C70.9896 77.4173 73.9303 80.1265 77.8597 82.4293C77.6546 82.5249 77.4205 82.6419 77.1573 82.7802C76.9061 82.9442 76.6608 83.121 76.4216 83.3106C76.1823 83.5002 75.9721 83.6684 75.7909 83.8153C73.1719 82.181 70.9947 80.3563 69.2592 78.3412C67.5238 76.3261 66.2241 74.1078 65.3602 71.6863C64.5151 69.2717 64.0648 66.6495 64.0092 63.8199L66.0468 63.923ZM76.8084 66.7225L77.2312 66.8764L77.6567 66.9355L78.8584 68.1071C77.5028 70.0188 76.0013 71.6006 74.3537 72.8526C72.7317 74.0927 71.0065 75.061 69.178 75.7576C67.3751 76.4423 65.5056 76.9005 63.5696 77.1323C61.6335 77.3641 59.6711 77.4054 57.6822 77.2562C57.6464 76.9452 57.5747 76.5573 57.4672 76.0925C57.3716 75.6533 57.2581 75.2927 57.1266 75.0108C58.9498 75.2061 60.7653 75.2177 62.5732 75.0457C64.4067 74.8617 66.1702 74.4607 67.8637 73.8426C69.576 73.2314 71.1748 72.3767 72.66 71.2784C74.1452 70.1801 75.4767 68.8024 76.6544 67.1453L76.8084 66.7225ZM59.7984 53.9867L84.1835 62.8621L83.4447 64.8918L59.0597 56.0164L59.7984 53.9867ZM65.2783 62.5259L77.0621 66.8148L76.313 68.8727L63.9373 64.3683L65.2783 62.5259ZM69.0773 52.0005L71.248 52.7905C71.0582 53.2535 70.7744 53.9164 70.3965 54.7792C70.0186 55.642 69.545 56.6509 68.9757 57.8058C68.4132 58.9419 67.7473 60.1575 66.978 61.4525C66.2343 62.7355 65.3889 64.0347 64.4419 65.3501C63.5018 66.6468 62.4522 67.893 61.2934 69.0887C60.1601 70.2725 58.9287 71.3461 57.599 72.3094C56.2694 73.2728 54.8407 74.0404 53.3129 74.6124C53.2019 74.274 53.0252 73.9117 52.7827 73.5255C52.5333 73.158 52.2643 72.8153 51.9756 72.4974C53.476 72.0006 54.868 71.3048 56.1515 70.4098C57.4606 69.5028 58.6621 68.4822 59.756 67.348C60.8756 66.2017 61.8764 65.0017 62.7585 63.7477C63.6593 62.5006 64.4713 61.2638 65.1945 60.0371C65.9245 58.7917 66.5476 57.6351 67.064 56.5673C67.5872 55.4807 68.0146 54.5402 68.3463 53.7457C68.6781 52.9512 68.9217 52.3695 69.0773 52.0005Z" fill="black"/>
</svg>
