<svg width="115" height="111" viewBox="0 0 115 111" fill="none" xmlns="http://www.w3.org/2000/svg">
<rect x="51.176" y="45.1797" width="59" height="59" rx="9" transform="rotate(6.79127 51.176 45.1797)" fill="#FFA96C"/>
<path d="M89.7248 66.5039L93.354 68.0962C90.6596 73.6727 87.4879 78.3867 83.8389 82.2383C80.2216 86.0936 76.0483 89.2059 71.3189 91.5753C66.6213 93.9484 61.2693 95.728 55.2629 96.914C55.1737 96.5812 55.0106 96.1911 54.7739 95.744C54.5689 95.3007 54.334 94.8376 54.0692 94.3549C53.8362 93.876 53.6077 93.4943 53.3838 93.2098C59.2366 92.2311 64.435 90.6588 68.979 88.4929C73.5268 86.2953 77.5128 83.4024 80.9372 79.8141C84.3653 76.1941 87.2945 71.7574 89.7248 66.5039ZM68.004 64.2072C69.1462 69.4994 70.9527 74.3551 73.4234 78.7743C75.9297 83.1655 79.1771 87.0165 83.1656 90.3274C87.1541 93.6383 91.9426 96.3193 97.5313 98.3706C97.215 98.5908 96.8575 98.8866 96.4588 99.258C96.0881 99.665 95.7173 100.072 95.3466 100.479C95.0077 100.89 94.7239 101.243 94.4954 101.538C88.7986 99.3126 83.9355 96.4454 79.9062 92.9363C75.9125 89.3992 72.6477 85.2883 70.1119 80.6035C67.5799 75.887 65.6599 70.6311 64.352 64.8358L68.004 64.2072ZM57.7622 60.909L100.85 66.0402L100.435 69.5196L57.3478 64.3884L57.7622 60.909ZM78.269 55.1334L81.9391 55.5705L80.7244 65.7704L77.0543 65.3334L78.269 55.1334Z" fill="black"/>
<rect x="12.2148" y="0.257294" width="59" height="59" rx="9" transform="rotate(6.79127 12.2148 0.257294)" fill="#5B87E8"/>
<path d="M25.3033 48.141L20.9026 47.617L37.7589 14.4686L42.0919 14.9846L50.6921 51.1645L46.2914 50.6405L39.4077 20.2267L39.1369 20.1944L25.3033 48.141ZM28.5407 34.7939L46.279 36.9063L45.8356 40.63L28.0973 38.5175L28.5407 34.7939Z" fill="black"/>
<path d="M20.7069 62.6996C20.3935 65.3315 20.6014 67.9992 21.3189 70.5507C22.0366 73.1023 23.2494 75.4882 24.8888 77.5709C26.5282 79.6535 28.5619 81.3928 30.8734 82.6895C32.866 83.8074 35.0323 84.5757 37.2778 84.9678L37.3053 84.7537C37.4031 83.9901 38.291 83.6189 38.9033 84.0854L43.1447 87.3167C43.7568 87.7832 43.6345 88.7371 42.9245 89.0341L38.006 91.092C37.2958 91.389 36.5295 90.8052 36.6274 90.0417L36.6642 89.7491C33.8062 89.2757 31.049 88.3098 28.5174 86.8896C25.6543 85.2834 23.1353 83.1293 21.1048 80.5496C19.0742 77.9701 17.5718 75.0157 16.6829 71.8554C15.7941 68.695 15.5361 65.3901 15.9243 62.1301L20.7069 62.6996Z" fill="url(#paint0_linear_10_105)"/>
<defs>
<linearGradient id="paint0_linear_10_105" x1="18.7905" y1="62.4714" x2="46.5249" y2="73.0022" gradientUnits="userSpaceOnUse">
<stop offset="0.167769" stop-color="#5B87E8"/>
<stop offset="0.862003" stop-color="#EA903C"/>
</linearGradient>
</defs>
</svg>
