<svg width="65" height="65" viewBox="0 0 65 65" fill="none" xmlns="http://www.w3.org/2000/svg">
<path d="M30.1475 39.8877C30.3765 40.2171 30.6356 40.5324 30.9277 40.8271L53.2666 63.3652C54.0075 64.1127 54.8758 64.6569 55.8018 65H6C2.68629 65 0 62.3137 0 59V50C6.56593 50 13.0676 48.7069 19.1338 46.1943C23.0667 44.5653 26.7663 42.4432 30.1475 39.8877ZM35.584 0C35.584 4.67289 34.6632 9.29999 32.875 13.6172C31.0868 17.9344 28.4654 21.8569 25.1611 25.1611C21.8569 28.4654 17.9344 31.0867 13.6172 32.875C9.29999 34.6632 4.6729 35.584 0 35.584V6C0 2.68629 2.68629 0 6 0H35.584ZM59 0C62.3137 0 65 2.68629 65 6V56.6289C64.696 55.4882 64.1006 54.4083 63.21 53.5098L40.8711 30.9717C40.5638 30.6617 40.2337 30.3879 39.8877 30.1475C42.4432 26.7663 44.5653 23.0667 46.1943 19.1338C48.7069 13.0676 50 6.56593 50 0H59Z" fill="black"/>
</svg>
